<svg width="25" height="25" viewBox="0 0 25 25" fill="none" xmlns="http://www.w3.org/2000/svg">
<path d="M20.376 12.8881V11.1811C20.376 6.73906 16.897 3.02006 12.621 2.89106C10.417 2.84006 8.36998 3.62706 6.80498 5.14706C5.23798 6.66706 4.37598 8.70606 4.37598 10.8881V12.8881C3.27298 12.8881 2.37598 13.7851 2.37598 14.8881V18.8881C2.37598 19.9911 3.27298 20.8881 4.37598 20.8881H6.37598V10.8881C6.37598 9.25106 7.02198 7.72206 8.19698 6.58206C9.37098 5.44206 10.932 4.84306 12.56 4.89106C15.768 4.98706 18.376 7.80906 18.376 11.1811V20.8881H20.376C21.479 20.8881 22.376 19.9911 22.376 18.8881V14.8881C22.376 13.7851 21.479 12.8881 20.376 12.8881Z" fill="white"/>
<path d="M7.37598 12.8881H9.37598V20.8881H7.37598V12.8881ZM15.376 12.8881H17.376V20.8881H15.376V12.8881Z" fill="white"/>
</svg>
